<mxfile host="app.diagrams.net" modified="2022-10-12T09:17:25.590Z" agent="5.0 (Windows NT 10.0; Win64; x64) AppleWebKit/537.36 (KHTML, like Gecko) Chrome/105.0.0.0 Safari/537.36" etag="E7c7JXUGTI5eIhDFhIdn" version="20.4.0" type="github">
  <diagram id="PoJ0HdovBLc3zaGZgjU1" name="Page-1">
    <mxGraphModel dx="782" dy="507" grid="1" gridSize="10" guides="1" tooltips="1" connect="1" arrows="1" fold="1" page="1" pageScale="1" pageWidth="850" pageHeight="1100" math="0" shadow="0">
      <root>
        <mxCell id="0" />
        <mxCell id="1" parent="0" />
        <mxCell id="Ki0KpJpObuxMPZsoyZfE-1" value="Vertical Container" style="swimlane;" vertex="1" parent="1">
          <mxGeometry x="90" y="170" width="200" height="200" as="geometry" />
        </mxCell>
        <mxCell id="Ki0KpJpObuxMPZsoyZfE-2" value="Vertical Container" style="swimlane;" vertex="1" parent="1">
          <mxGeometry x="400" y="180" width="200" height="200" as="geometry" />
        </mxCell>
      </root>
    </mxGraphModel>
  </diagram>
</mxfile>
